<?xml version="1.0" standalone="no"?><!DOCTYPE svg PUBLIC "-//W3C//DTD SVG 1.1//EN" "http://www.w3.org/Graphics/SVG/1.1/DTD/svg11.dtd"><svg t="1678798253444" class="icon" viewBox="0 0 1024 1024" version="1.1" xmlns="http://www.w3.org/2000/svg" p-id="2987" xmlns:xlink="http://www.w3.org/1999/xlink" width="200" height="200"><path d="M1008.224 5.088C1003.008 0 995.328 0 987.68 0c-5.088 0-12.768 2.56-17.92 5.088L17.92 552.672c-12.736 7.616-17.92 20.416-17.92 33.248 0 15.328 10.208 25.632 23.008 30.688l225.12 92.128L859.744 181.6 365.92 788.064v199.552c0 15.328 10.208 28.16 23.008 33.248 5.152 2.56 7.744 2.56 12.8 2.56 10.24 0 20.48-5.12 28.16-12.768l138.112-168.832 258.368 104.896c4.032 1.92 8.448 2.784 12.8 2.592 5.056 0 12.736-2.592 17.92-5.12 10.24-5.12 15.328-15.328 17.984-25.568l148.448-875.168c2.528-15.328-5.12-28.128-15.296-38.368z" p-id="2988" fill="#000000"></path></svg>